<svg width="512" height="439" viewBox="0 0 512 439" fill="none" xmlns="http://www.w3.org/2000/svg">
<path d="M204.762 315.007C204.762 300.629 200.02 289.426 190.537 281.397C181.225 273.368 164.758 265.059 141.135 256.47C117.512 247.881 98.1991 239.572 83.1975 231.543C34.3991 205.589 9.99999 169.925 10 124.553C10 101.959 16.0351 82.0738 28.1054 64.8956C40.3481 47.5306 57.5913 34.0868 79.8351 24.5641C102.079 14.8547 127.082 9.99999 154.843 10C181.915 10 206.142 15.2282 227.523 25.6845C238.028 30.7805 247.386 36.9408 255.597 44.1656C261.106 40.0064 267.037 36.2736 273.389 32.9674C295.633 21.3907 321.929 15.6024 352.277 15.6024C398.144 15.6025 434.269 28.4861 460.651 54.2535C487.033 80.0208 500.483 115.311 501 160.124L501 429L409.697 429L409.697 158.163C408.663 113.537 389.523 91.2239 352.277 91.2239C333.482 91.2239 319.256 96.8255 309.6 108.029C299.944 119.232 295.116 137.437 295.116 162.644L295.116 229.962C280.094 210.349 259.511 193.942 234.543 180.658C225.636 175.892 215.547 171.139 204.33 166.384V162.084C204.33 153.245 204.838 144.749 205.854 136.596H205.021C205.021 119.978 200.279 107.094 190.795 97.945C181.484 88.7957 168.81 84.2211 152.774 84.2211C136.565 84.2211 123.719 88.1422 114.235 95.9844C104.924 103.64 100.268 113.443 100.268 125.393C100.268 135.849 105.441 145.372 115.787 153.961C126.133 162.363 144.325 171.139 170.362 180.288C196.399 189.251 217.781 198.96 234.507 209.417C275.201 234.811 295.548 269.821 295.548 314.447C295.548 350.11 283.133 378.118 258.302 398.47C233.472 418.823 199.417 428.999 156.136 428.999L156.136 355.058C171.138 355.058 182.95 351.604 191.571 344.695C200.365 337.6 204.762 327.704 204.762 315.007Z" fill="url(#paint0_linear_1036_4640)"/>
<defs>
<linearGradient id="paint0_linear_1036_4640" x1="36.3822" y1="219.5" x2="449.703" y2="219.5" gradientUnits="userSpaceOnUse">
<stop stop-color="#3BB969"/>
<stop offset="1" stop-color="#8CC641"/>
</linearGradient>
</defs>
</svg>
